<?xml version="1.0" standalone="no"?><!DOCTYPE svg PUBLIC "-//W3C//DTD SVG 1.1//EN" "http://www.w3.org/Graphics/SVG/1.1/DTD/svg11.dtd"><svg t="1553173252226" class="icon" style="" viewBox="0 0 1024 1024" version="1.1" xmlns="http://www.w3.org/2000/svg" p-id="5277" xmlns:xlink="http://www.w3.org/1999/xlink" width="32" height="32"><defs><style type="text/css"></style></defs><path d="M450.234 787.253c-32.54 0-59.065-26.53-59.065-59.04V192.897c0-32.502 26.525-58.992 59.065-58.992h514.734c32.57 0 59.03 26.49 59.03 58.992v535.316c0 32.51-26.46 59.04-59.03 59.04h-120.87v-17.975c0-46.82-38.15-85.025-85.025-85.025-46.945 0-85.065 38.205-85.065 85.025v17.975H450.234z m189.314-35.82c8.7-58.135 58.965-102.905 119.525-102.905 60.495 0 110.875 44.77 119.495 102.905h86.4c12.8 0 23.28-10.425 23.28-23.22V192.897c0-12.843-10.485-23.268-23.28-23.268H450.234c-12.855 0-23.285 10.425-23.285 23.268v535.316c0 12.795 10.425 23.22 23.285 23.22h189.314zM59.06 787.253c-32.57 0-59.06-26.53-59.06-59.04v-216.17c0-8.685 2.63-24.315 25.2-60.865 13.65-22.142 32.635-48.512 53.42-74.21 20.88-25.725 42.22-49.245 60.22-66.202 30.7-29.037 45.01-32.775 54.03-32.775H367.9c32.5 0 59.05 26.4 59.05 59.055v391.167c0 32.51-26.55 59.04-59.05 59.04h-59.09v-17.975c0-46.82-38.09-85.025-85.055-85.025-46.855 0-85.07 38.205-85.07 85.025v17.975H59.06z m45.2-35.82c8.7-58.135 59.02-102.905 119.495-102.905 60.56 0 110.845 44.77 119.495 102.905h24.65c12.82 0 23.27-10.425 23.27-23.215V337.049c0-12.815-10.45-23.365-23.27-23.365H193.604c-1.705 0.52-11.16 4.415-34.43 27.077-16.925 16.433-36.735 38.575-55.81 62.552-19.2 23.977-36.585 48.232-48.815 68.377-18.58 30.41-18.8 39.892-18.8 40.352v216.17c0 12.795 10.48 23.22 23.31 23.22h45.201v0.001zM0 560.764v-48.72c0-38.91 72.45-127.837 87.05-145.375l5.37-6.315h151.875c32.655 0 59.085 26.49 59.085 59.055v82.357c0 32.542-26.43 58.997-59.085 58.997H0v0.001z m244.294-164.688H109.19c-19.465 23.825-37.315 48.265-50.75 69.39-22.47 35.355-22.69 46.052-22.69 46.577v12.97h208.544c12.91 0 23.43-10.485 23.43-23.247v-82.357c0-12.875-10.52-23.333-23.43-23.333z m-20.54 494.012c-66.635 0-120.785-54.11-120.785-120.81 0-66.545 54.15-120.75 120.785-120.75 66.63 0 120.865 54.205 120.865 120.75 0 66.7-54.235 120.81-120.865 120.81z m0-205.835c-46.855 0-85.07 38.205-85.07 85.025 0 46.94 38.215 85.15 85.07 85.15 46.965 0 85.055-38.21 85.055-85.15 0-46.82-38.09-85.025-85.055-85.025z m535.319 205.835c-66.665 0-120.785-54.11-120.785-120.81 0-66.545 54.12-120.75 120.785-120.75 66.635 0 120.805 54.205 120.805 120.75 0 66.7-54.17 120.81-120.805 120.81z m0-205.835c-46.945 0-85.065 38.205-85.065 85.025 0 46.94 38.12 85.15 85.065 85.15 46.875 0 85.025-38.21 85.025-85.15 0-46.82-38.12-85.025-85.025-85.025z" p-id="5278" fill="#509885"></path></svg>