<?xml version="1.0" standalone="no"?><!DOCTYPE svg PUBLIC "-//W3C//DTD SVG 1.1//EN" "http://www.w3.org/Graphics/SVG/1.1/DTD/svg11.dtd"><svg t="1553171983590" class="icon" style="" viewBox="0 0 1024 1024" version="1.1" xmlns="http://www.w3.org/2000/svg" p-id="5475" xmlns:xlink="http://www.w3.org/1999/xlink" width="32" height="32"><defs><style type="text/css"></style></defs><path d="M870.249011 1015.9104a77.824 77.824 0 0 1-34.4064 8.0896H188.981811A89.2928 89.2928 0 0 1 102.249011 933.7856V189.7472c0-48.5376 30.72-85.8112 75.1616-92.16a221.2864 221.2864 0 0 1 26.7264-1.6384c7.2704 0 14.5408 0 21.7088 1.024a22.016 22.016 0 0 1 18.0224 23.9616A22.8352 22.8352 0 0 1 222.773811 143.36h-31.744a43.3152 43.3152 0 0 0-43.8272 46.6944v739.9424a43.2128 43.2128 0 0 0 44.4416 46.7968h640.3072c27.136 0 44.7488-18.7392 44.8512-47.9232V193.1264a53.248 53.248 0 0 0-8.3968-32.0512A40.96 40.96 0 0 0 834.921011 143.36h-32.5632a23.3472 23.3472 0 0 1-22.6304-23.3472 23.8592 23.8592 0 0 1 6.2464-16.4864 21.504 21.504 0 0 1 15.5648-7.0656h13.4144a192.512 192.512 0 0 1 40.3456 2.8672A88.9856 88.9856 0 0 1 921.449011 184.32v744.0384c0 40.96-16.896 69.632-51.2 87.552zM318.210611 711.168h385.2288a22.7328 22.7328 0 0 1 24.4736 23.4496 23.6544 23.6544 0 0 1-6.0416 16.4864A20.48 20.48 0 0 1 706.409011 757.76H317.289011a20.48 20.48 0 0 1-19.0464-13.1072v-0.6144a22.8352 22.8352 0 0 1 2.56-24.2688 21.9136 21.9136 0 0 1 17.5104-9.3184z m391.9872-122.88a55.5008 55.5008 0 0 1-8.9088 0.7168H319.746611a24.8832 24.8832 0 0 1-16.1792-6.144 22.7328 22.7328 0 0 1-6.7584-23.6544v-0.6144A21.1968 21.1968 0 0 1 314.729011 542.72a46.3872 46.3872 0 0 1 6.3488 0h381.7472a25.6 25.6 0 0 1 19.5584 7.7824 23.9616 23.9616 0 0 1 5.5296 18.0224 22.9376 22.9376 0 0 1-17.8176 20.48z m-67.4816-405.9136H386.409011c-35.2256 0-58.0608-24.064-58.2656-61.44v-15.0528-46.2848c0-35.1232 23.552-59.5968 56.832-59.5968h254.2592C672.412211 0 696.169011 24.3712 696.169011 59.1872v65.2288a55.6032 55.6032 0 0 1-52.9408 57.856z m7.7824-134.656h-276.48v87.2448h276.48V47.7184zM521.269811 372.5312h55.7056a22.9376 22.9376 0 0 1 22.2208 22.7328 24.8832 24.8832 0 0 1-0.7168 6.3488A22.8352 22.8352 0 0 1 576.565811 419.84H317.289011a23.6544 23.6544 0 0 1-1.4336-47.104h205.4144z" fill="#4BC1A2" p-id="5476"></path></svg>