<?xml version="1.0" standalone="no"?><!DOCTYPE svg PUBLIC "-//W3C//DTD SVG 1.1//EN" "http://www.w3.org/Graphics/SVG/1.1/DTD/svg11.dtd"><svg t="1553336823865" class="icon" style="" viewBox="0 0 1024 1024" version="1.1" xmlns="http://www.w3.org/2000/svg" p-id="2525" xmlns:xlink="http://www.w3.org/1999/xlink" width="32" height="32"><defs><style type="text/css"></style></defs><path d="M704 192h224a32 32 0 1 1 0 64H832v586.688C832 907.456 779.52 960 714.688 960H309.312A117.312 117.312 0 0 1 192 842.688V256H96a32 32 0 0 1 0-64H320v-10.688C320 116.544 372.48 64 437.312 64h149.376C651.456 64 704 116.48 704 181.312V192z m-64 0v-10.688A53.312 53.312 0 0 0 586.688 128H437.312A53.312 53.312 0 0 0 384 181.312V192h256z m128 64H256v586.688c0 29.44 23.872 53.312 53.312 53.312h405.376c29.44 0 53.312-23.872 53.312-53.312V256zM384 416a32 32 0 0 1 64 0v320a32 32 0 1 1-64 0v-320z m192 0a32 32 0 0 1 64 0v320a32 32 0 1 1-64 0v-320z" p-id="2526" fill="#e6e6e6"></path></svg>